<?xml version="1.0" standalone="no"?>
<!DOCTYPE svg PUBLIC "-//W3C//DTD SVG 1.1//EN" "http://www.w3.org/Graphics/SVG/1.1/DTD/svg11.dtd">
<svg xmlns="http://www.w3.org/2000/svg" fill="#000000" width="32" height="32" viewBox="0 0 32 32" version="1.1">
<title>glasses</title>
<path d="M30 15.25h-1.326c-0.374-2.835-2.775-5-5.682-5-2.804 0-5.138 2.015-5.632 4.677l-0.005 0.035c-0.406-0.124-0.872-0.195-1.355-0.195s-0.949 0.071-1.389 0.204l0.034-0.009c-0.499-2.697-2.833-4.712-5.637-4.712-2.907 0-5.308 2.165-5.679 4.971l-0.003 0.029h-1.326c-0.414 0-0.75 0.336-0.75 0.75s0.336 0.75 0.75 0.75v0h1.326c0.369 2.834 2.768 5 5.673 5 2.981 0 5.429-2.281 5.695-5.193l0.002-0.022c0.385-0.164 0.834-0.259 1.304-0.259s0.919 0.095 1.327 0.267l-0.022-0.008c0.267 2.934 2.715 5.215 5.697 5.215 2.905 0 5.304-2.166 5.67-4.971l0.003-0.029h1.326c0.414 0 0.75-0.336 0.75-0.75s-0.336-0.75-0.75-0.75v0zM9 20.25c-2.347 0-4.25-1.903-4.25-4.25s1.903-4.25 4.25-4.25c2.347 0 4.25 1.903 4.25 4.25v0c-0.003 2.346-1.904 4.247-4.25 4.25h-0zM23 20.25c-2.347 0-4.25-1.903-4.25-4.25s1.903-4.25 4.25-4.25c2.347 0 4.25 1.903 4.25 4.25v0c-0.003 2.346-1.904 4.247-4.25 4.25h-0z"/>
</svg>